 <svg  version="1.0" xmlns="http://www.w3.org/2000/svg"  width="155" height="130" viewBox="0 0 300.000000 300.000000"  preserveAspectRatio="xMidYMid meet">  <g transform="translate(0.000000,300.000000) scale(0.100000,-0.100000)" fill="#ffffff" stroke="none"> <path d="M1078 2663 l-37 -37 -19 24 -18 23 -27 -44 -26 -44 -11 33 c-7 17 -14 32 -17 32 -3 0 -14 -11 -25 -25 -18 -24 -187 -129 -195 -122 -2 2 8 20 22 40 13 21 22 37 19 37 -15 0 -88 -44 -120 -73 l-37 -32 5 35 c4 19 10 44 14 55 6 18 4 17 -21 -5 -31 -28 -64 -93 -65 -126 0 -21 -2 -21 -37 -9 -39 13 -103 9 -103 -6 0 -5 7 -9 16 -9 8 0 24 -5 35 -10 18 -10 17 -13 -16 -44 -28 -26 -35 -41 -35 -70 0 -20 5 -36 10 -36 6 0 10 4 10 9 0 13 29 41 42 41 6 0 5 -7 -3 -17 -23 -27 -16 -128 14 -215 36 -103 36 -103 -20 -103 -47 0 -48 -1 -51 -34 -4 -39 9 -51 54 -51 23 0 34 -6 42 -25 14 -30 70 -67 93 -61 11 2 22 -6 30 -22 16 -29 94 -82 122 -82 16 0 18 -5 13 -32 -4 -21 0 -44 9 -62 19 -35 19 -33 -7 -39 -12 -4 -20 -9 -17 -11 6 -6 89 24 134 48 32 17 85 21 101 8 5 -5 39 -22 77 -37 l68 -28 -31 -30 c-16 -16 -30 -37 -30 -46 -1 -9 -14 12 -29 45 -30 64 -59 98 -46 53 4 -13 17 -46 30 -74 27 -57 51 -173 46 -222 -2 -18 -49 -40 -103 -48 -54 -8 -131 2 -126 17 2 6 32 22 66 36 50 20 62 30 62 48 0 19 -7 23 -57 29 -95 11 -105 14 -88 32 13 12 16 25 15 58 0 3 10 26 24 51 13 24 22 54 19 64 -7 26 -23 15 -23 -14 0 -13 -9 -31 -19 -40 -11 -10 -22 -38 -26 -65 -9 -65 -16 -75 -54 -66 -24 5 -31 12 -31 31 0 20 4 23 23 19 16 -4 27 2 41 22 20 28 20 28 0 11 -25 -22 -34 -23 -34 -4 0 7 -7 19 -15 26 -9 8 -15 30 -15 59 0 73 -9 79 -150 102 -410 66 -410 66 -410 6 0 -18 14 -102 30 -187 32 -161 46 -190 91 -190 11 0 22 -7 25 -15 3 -8 15 -17 27 -21 11 -4 29 -16 38 -28 15 -18 21 -19 38 -8 27 16 41 15 41 -2 0 -13 20 -26 41 -26 5 0 19 10 30 21 20 20 25 21 78 9 72 -16 93 -16 132 4 18 9 34 16 36 16 7 0 -7 -40 -35 -103 l-25 -58 20 -21 c12 -11 43 -26 70 -33 26 -7 48 -17 47 -24 -1 -6 -2 -38 -2 -71 -2 -53 -4 -60 -22 -60 -19 0 -20 4 -14 67 5 49 4 64 -4 59 -7 -4 -12 -31 -12 -62 0 -30 -4 -54 -9 -54 -10 0 -9 -50 2 -67 5 -7 26 -13 48 -13 32 0 39 4 39 19 0 10 -7 22 -16 25 -12 4 -15 2 -10 -9 4 -11 -2 -15 -23 -15 -22 0 -30 5 -33 23 -4 22 -2 23 39 22 42 -2 65 8 40 18 -8 3 -11 24 -9 71 l4 66 33 0 c19 0 40 6 46 13 8 9 32 11 73 9 51 -3 66 0 88 17 l27 21 -22 48 c-17 39 -21 67 -22 162 -1 68 -6 124 -13 137 -17 31 -15 43 7 43 20 0 75 -46 83 -70 4 -12 12 -12 56 -2 28 6 70 23 92 37 26 16 54 25 82 25 24 0 48 4 55 8 17 11 46 101 37 120 -4 10 -6 27 -5 39 3 26 -33 53 -71 53 -23 0 -28 4 -28 24 0 31 -25 56 -55 56 -33 0 -37 -10 -39 -99 -2 -71 -5 -81 -40 -134 -21 -31 -40 -57 -42 -57 -2 0 -18 12 -34 27 -19 17 -30 36 -30 53 0 23 -6 29 -42 40 -24 8 -44 15 -46 16 -2 1 4 14 13 28 11 17 15 36 12 55 -5 25 -2 31 22 41 61 25 121 108 121 167 0 15 8 35 17 45 9 10 18 41 21 71 3 41 0 57 -16 76 -19 24 -19 25 -1 67 11 23 20 60 22 81 1 22 13 53 28 73 34 44 49 74 49 94 0 28 -38 -5 -55 -47 -12 -30 -19 -36 -28 -28 -10 8 -12 -4 -11 -57 1 -37 0 -52 -3 -34 -2 17 -9 32 -15 32 -6 0 -8 9 -5 19 3 12 -4 28 -19 42 l-23 22 27 37 c15 21 30 36 34 33 12 -7 28 44 38 121 8 66 7 73 -21 128 l-29 58 -48 0 c-41 0 -52 -5 -84 -37z m48 -10 l-6 -28 24 27 c27 30 36 27 36 -11 0 -23 1 -24 14 -6 13 18 14 18 25 -3 6 -12 14 -41 17 -64 7 -52 -8 -93 -61 -163 -38 -50 -38 -50 -5 -20 32 29 31 16 -2 -27 -17 -23 -146 -68 -206 -72 -43 -3 -44 -3 -21 10 13 7 30 13 38 14 15 0 51 28 51 40 0 4 -21 -3 -47 -16 -54 -26 -128 -43 -103 -24 12 9 6 10 -25 4 -39 -7 -205 -12 -205 -6 0 2 5 12 10 23 14 25 6 24 -21 -3 l-22 -23 6 25 c6 25 6 25 -11 5 -23 -27 -76 -23 -69 6 3 10 1 17 -4 13 -5 -3 -9 -13 -10 -22 0 -10 -3 -12 -5 -5 -4 9 -13 9 -30 2 -14 -5 -32 -9 -41 -9 -13 0 -13 3 -2 18 7 9 -1 4 -19 -12 -33 -30 -40 -29 -22 4 13 25 77 63 92 55 7 -4 4 1 -6 9 -11 9 -24 16 -30 16 -5 0 -7 3 -4 6 4 3 20 -2 37 -11 23 -12 31 -12 31 -3 0 20 21 90 26 86 2 -2 0 -19 -5 -36 -9 -28 -8 -31 7 -23 9 5 33 26 52 46 39 41 89 74 59 39 -21 -24 -52 -84 -43 -84 3 0 20 12 37 26 17 15 63 42 102 61 38 18 87 47 107 63 39 32 48 36 48 21 0 -16 -63 -70 -107 -93 -24 -12 -43 -25 -43 -29 0 -8 92 29 100 41 3 4 16 13 29 20 13 7 44 31 70 54 41 37 44 38 27 11 l-19 -30 21 19 c12 11 30 16 41 13 11 -3 19 -1 18 5 -1 5 9 17 22 26 24 16 24 16 13 -5 -16 -29 -15 -38 2 -24 8 7 13 22 11 33 -5 24 1 38 17 38 6 0 8 -11 4 -27z m-567 -350 c52 -2 78 -24 97 -80 16 -45 18 -80 4 -88 -5 -3 -10 -1 -10 4 0 6 -4 11 -9 11 -4 0 -6 -12 -3 -27 4 -21 2 -25 -12 -20 -12 5 -16 1 -16 -18 0 -25 -19 -36 -21 -12 0 6 -4 3 -9 -8 -13 -30 -12 -73 3 -78 6 -3 -2 -6 -19 -6 -33 -1 -52 14 -58 46 -2 11 -11 36 -20 57 -9 21 -16 49 -16 61 0 13 -3 32 -7 42 -6 15 -9 13 -15 -12 l-7 -30 4 30 c1 17 6 41 10 55 5 19 4 22 -4 10 -14 -19 -14 -11 0 29 11 30 48 57 59 42 3 -3 25 -7 49 -8z m606 -30 c17 -35 34 -173 22 -173 -3 0 -20 13 -38 29 -17 16 -49 34 -70 39 -34 9 -41 7 -49 -8 -15 -28 -13 -30 38 -31 42 0 44 -1 22 -11 -60 -25 -73 -34 -87 -61 -10 -21 -12 -36 -5 -56 6 -18 6 -34 0 -45 -7 -13 -1 -25 30 -56 34 -35 46 -40 84 -40 24 0 49 5 56 12 35 35 14 -47 -26 -101 -14 -19 -49 -45 -81 -60 -48 -22 -69 -26 -146 -25 -185 2 -268 33 -312 117 -10 20 -18 26 -26 19 -17 -14 -50 1 -80 38 -30 35 -34 57 -15 83 11 14 24 15 98 8 61 -6 72 -9 38 -10 -53 -1 -56 -4 -30 -31 15 -16 24 -17 66 -9 45 8 51 7 74 -16 58 -59 144 -54 202 11 24 28 30 44 30 80 0 57 -22 99 -61 119 -25 13 -39 14 -80 6 -61 -13 -68 -13 -49 -1 8 5 28 10 43 10 16 0 26 4 22 10 -4 6 13 10 44 10 l51 0 -12 26 c-11 23 -16 25 -47 19 -67 -12 -114 -42 -148 -94 -19 -28 -33 -63 -33 -79 0 -31 -17 -42 -68 -42 -21 0 -23 3 -17 33 8 36 31 77 44 77 5 0 17 20 26 45 17 42 17 85 0 127 -6 15 9 16 177 15 179 -2 184 -1 233 24 28 14 53 27 56 28 4 0 15 -16 24 -36z m-296 -207 c54 -28 66 -97 25 -145 -21 -25 -33 -31 -66 -31 -52 0 -77 14 -94 56 -12 29 -12 39 0 68 25 61 78 81 135 52z m306 -11 c17 -16 25 -35 25 -59 0 -48 -8 -65 -41 -81 -38 -20 -72 -19 -100 5 l-24 19 26 1 c46 0 63 37 32 72 -21 24 -43 23 -43 -2 0 -11 -7 -20 -15 -20 -24 0 -17 29 14 61 38 38 91 40 126 4z m163 -357 c16 -16 15 -55 -2 -61 -10 -4 -13 -27 -13 -87 0 -70 3 -83 21 -96 24 -16 9 -18 -30 -4 -23 9 -25 9 -15 -4 10 -12 7 -17 -17 -30 -16 -8 -32 -13 -35 -10 -3 4 -16 -1 -29 -10 -30 -21 -67 -20 -75 2 -9 22 -21 33 -55 51 -31 16 -34 24 -14 40 10 9 22 4 52 -20 21 -17 41 -35 45 -40 6 -10 43 27 78 78 23 33 41 103 44 165 2 40 21 50 45 26z m-523 -28 c-3 -5 -4 -10 -1 -10 2 0 13 -3 23 -6 15 -5 15 -4 3 5 -11 8 -8 9 15 7 16 -2 31 -8 33 -14 2 -8 9 -9 21 -2 19 10 31 4 31 -14 0 -12 -61 -13 -79 -1 -7 3 -10 1 -9 -6 4 -14 -47 -33 -67 -25 -23 9 -18 51 8 64 29 14 29 14 22 2z m205 -30 c9 -17 7 -20 -14 -26 -31 -7 -46 1 -46 27 0 26 46 26 60 -1z m-724 -3 c-6 -5 5 -5 24 -2 40 8 36 8 75 6 29 -2 30 -2 6 -12 -13 -5 -22 -12 -19 -14 3 -3 17 -1 32 5 32 12 60 12 31 0 -27 -11 -12 -15 90 -29 116 -16 115 -14 115 -220 0 -92 -3 -170 -6 -173 -3 -4 -17 0 -32 8 -15 8 -37 14 -48 14 -19 0 -61 27 -123 79 -23 20 -25 20 -55 3 -17 -9 -38 -23 -47 -30 -12 -9 -23 -10 -43 -3 -33 13 -33 25 0 68 l25 33 26 -20 c71 -56 148 14 113 104 -9 24 -6 28 56 63 36 21 61 39 56 41 -10 3 -82 -28 -127 -55 -16 -10 -32 -19 -34 -20 -2 -1 6 -15 18 -31 28 -40 27 -68 -4 -88 -23 -15 -27 -15 -50 0 -29 19 -30 30 -10 79 9 23 11 38 5 42 -6 3 -10 3 -11 -2 -3 -30 -12 -48 -51 -95 -23 -30 -50 -65 -60 -78 -22 -34 -33 -20 -47 60 -27 149 -41 227 -46 251 l-6 27 79 -2 c44 0 75 -5 68 -9z m1141 -24 c19 -24 10 -29 -48 -27 -57 2 -70 13 -44 34 14 12 18 11 26 -1 7 -11 9 -11 9 4 0 14 5 17 23 12 12 -4 27 -14 34 -22z m8 -71 c0 -25 0 -25 -60 -16 -34 5 -45 11 -45 24 0 13 9 20 28 22 47 6 77 -6 77 -30z m-19 -46 c19 -15 19 -15 -2 -36 -19 -19 -22 -20 -52 -4 -45 22 -44 54 1 54 18 0 42 -6 53 -14z m-747 -180 c-1 -30 2 -59 5 -64 8 -14 -4 -43 -15 -36 -9 5 -11 132 -2 147 9 16 12 5 12 -47z m51 24 c-7 -5 -2 -9 13 -12 31 -6 60 8 31 15 -23 5 56 -1 110 -9 l39 -6 -94 -39 c-142 -59 -129 -60 -129 9 0 56 1 60 21 55 14 -4 17 -8 9 -13z m-298 -65 c-2 -11 -3 -30 -3 -43 1 -17 -4 -23 -17 -20 -18 3 -28 47 -18 75 9 22 42 11 38 -12z m428 7 c0 -4 -22 -19 -48 -32 -30 -15 -48 -30 -47 -40 1 -8 0 -9 -2 -2 -3 6 -11 12 -20 12 -13 0 -13 3 -3 15 7 8 16 13 20 10 5 -3 15 2 23 10 9 8 25 15 36 15 11 0 23 5 26 10 7 12 15 13 15 2z m-478 -47 c3 -24 0 -35 -9 -35 -15 0 -28 43 -19 66 9 24 23 8 28 -31z m106 13 c15 -15 16 -58 2 -59 -42 -6 -45 -4 -48 34 -3 31 0 37 15 37 11 0 24 -5 31 -12z m538 -52 c4 -30 23 -112 29 -128 4 -11 -1 -20 -16 -28 -19 -11 -25 -10 -37 6 -14 19 -12 87 4 129 6 16 5 18 -7 8 -8 -6 -25 -13 -39 -15 -23 -3 -25 -8 -30 -73 -5 -68 -6 -70 -34 -73 -39 -5 -46 11 -40 83 7 75 23 92 92 98 29 3 56 8 59 11 8 8 16 -1 19 -18z m-186 -31 c0 -64 -20 -145 -37 -152 -8 -3 -26 5 -40 19 -24 25 -24 26 -10 69 8 24 18 59 22 77 6 27 11 32 36 32 28 0 29 -2 29 -45z m137 -65 c0 -28 -3 -40 -14 -40 -10 0 -13 11 -11 40 1 22 7 40 13 40 6 0 12 -18 12 -40z"/> <path d="M1046 2509 c-78 -51 -83 -59 -19 -24 29 15 60 36 69 46 23 26 18 23 -50 -22z"/> <path d="M960 2480 c-11 -11 -22 -20 -25 -19 -3 0 -11 -2 -18 -4 -9 -4 -9 -6 1 -6 7 -1 10 -5 7 -11 -14 -23 24 4 44 30 25 34 20 39 -9 10z"/> <path d="M836 2443 c-4 -5 -26 -16 -49 -26 -42 -17 -42 -17 -7 -11 19 3 40 10 46 15 6 5 13 7 16 4 2 -3 5 2 5 10 0 17 -1 18 -11 8z"/> <path d="M1076 2364 c-65 -61 -66 -78 -1 -27 48 37 63 53 68 74 3 10 4 19 4 19 -1 -1 -33 -30 -71 -66z"/> <path d="M584 2188 c3 -13 6 -34 7 -48 1 -24 1 -24 9 4 6 18 5 36 -1 48 -13 25 -23 23 -15 -4z"/> <path d="M518 1910 c14 -6 22 -18 22 -34 0 -14 5 -28 11 -32 8 -4 9 1 4 16 -6 19 -4 22 9 17 22 -9 20 -2 -6 23 -12 11 -31 20 -42 19 -20 0 -20 -1 2 -9z"/> <path d="M996 1845 c-3 -8 -15 -15 -26 -15 -11 0 -20 -4 -20 -10 0 -5 9 -10 19 -10 20 0 51 25 51 41 0 15 -17 10 -24 -6z"/> <path d="M801 1821 c-16 -11 -6 -32 12 -25 8 3 27 -2 43 -11 16 -8 39 -15 50 -15 12 0 24 -7 28 -15 3 -9 17 -14 33 -14 l28 2 -27 4 c-42 6 -34 23 11 23 23 0 48 8 63 20 14 10 28 16 32 13 3 -3 6 1 6 10 0 23 -7 21 -42 -8 -23 -19 -41 -25 -78 -25 -58 0 -157 30 -138 42 7 4 9 8 3 8 -5 0 -16 -4 -24 -9z"/> <path d="M810 2009 c0 -16 -4 -19 -20 -14 -27 9 -27 -25 0 -50 44 -40 107 25 69 71 -18 22 -49 18 -49 -7z"/> <path d="M805 1321 c3 -5 -12 -15 -32 -21 -21 -7 -42 -17 -48 -23 -11 -11 -5 -9 63 18 42 17 56 35 26 35 -8 0 -13 -4 -9 -9z"/> <path d="M1290 2568 c0 -9 -4 -18 -9 -20 -6 -2 -6 -17 -1 -38 5 -21 9 -27 10 -15 1 12 4 15 7 7 3 -7 1 -18 -5 -25 -14 -17 -26 -90 -13 -83 5 3 11 0 14 -6 10 -31 27 100 18 141 -10 45 -21 65 -21 39z"/> <path d="M1204 2355 c-21 -19 -34 -34 -28 -35 5 0 25 16 44 35 43 45 35 45 -16 0z"/> <path d="M1569 1764 c-15 -18 -18 -188 -5 -258 6 -33 5 -36 -17 -36 -29 0 -50 -22 -45 -47 5 -27 44 -29 58 -2 10 17 14 19 20 8 12 -19 80 -21 106 -4 19 12 23 12 28 0 9 -23 41 -18 71 12 l27 28 -2 -25 c-6 -74 1 -261 10 -255 6 3 10 53 10 113 l0 107 30 17 c33 19 39 48 15 68 -13 10 -19 9 -37 -6 -20 -19 -21 -19 -15 1 14 49 18 93 8 99 -6 4 -12 -16 -17 -53 -6 -60 -25 -90 -66 -104 -25 -9 -33 11 -14 32 9 10 16 23 16 29 0 21 -20 13 -32 -14 -13 -28 -63 -59 -79 -48 -7 4 -2 15 12 30 15 16 19 28 13 34 -12 12 -40 -15 -45 -44 -6 -30 -26 -30 -32 0 -2 14 2 67 9 118 18 118 18 190 0 205 -10 9 -17 7 -27 -5z m22 -96 c-1 -45 -5 -96 -10 -113 -7 -23 -9 -2 -10 81 -1 99 4 133 16 120 3 -2 4 -42 4 -88z m279 -202 c0 -14 -29 -31 -38 -21 -6 6 18 35 29 35 5 0 9 -6 9 -14z m-310 -12 c0 -13 -21 -44 -30 -44 -11 0 -14 33 -3 43 8 8 33 9 33 1z"/> <path d="M2231 1743 c-6 -21 -11 -94 -11 -163 l0 -126 -31 -11 c-25 -10 -31 -9 -36 5 -4 8 -1 18 5 20 17 5 15 22 -2 22 -23 0 -28 -32 -9 -67 14 -27 15 -35 4 -45 -11 -11 -12 -9 -6 11 5 16 4 21 -4 17 -13 -9 -15 -43 -2 -51 13 -7 41 34 34 50 -2 8 5 18 16 24 27 15 41 14 41 -4 0 -19 9 -19 31 1 13 12 22 13 38 5 24 -13 41 -14 41 -2 0 5 -17 12 -37 16 -29 5 -40 3 -50 -11 -11 -16 -13 -12 -13 27 0 24 5 62 10 84 5 22 13 84 16 138 6 85 5 97 -9 97 -10 0 -20 -14 -26 -37z m20 -93 l-8 -75 -2 77 c-1 75 10 139 17 93 1 -11 -2 -54 -7 -95z"/> <path d="M2560 1770 c-12 -7 -15 -32 -15 -122 1 -62 4 -128 8 -145 6 -30 4 -33 -17 -33 -24 0 -38 -12 -49 -42 -5 -13 0 -19 20 -24 20 -5 30 -2 43 16 12 17 19 19 22 9 6 -19 78 -21 106 -3 13 9 21 18 19 21 -3 2 -17 -3 -31 -12 -35 -23 -51 -10 -26 22 11 14 17 30 14 35 -8 13 -42 -20 -46 -45 -2 -11 -8 -22 -14 -24 -21 -7 -24 44 -9 143 8 55 15 117 15 140 0 49 -18 78 -40 64z m11 -205 c-7 -33 -9 -21 -10 71 -1 61 2 114 7 118 11 12 14 -143 3 -189z m-21 -111 c0 -13 -21 -44 -30 -44 -11 0 -14 33 -3 43 8 8 33 9 33 1z"/> <path d="M2761 1475 l-30 -47 -15 33 c-16 38 -22 15 -6 -25 12 -32 36 -34 46 -3 3 12 16 35 26 50 11 16 18 31 15 34 -3 3 -19 -16 -36 -42z"/> <path d="M2008 1485 c-4 -4 -4 -13 -2 -20 3 -8 -3 -18 -14 -24 -22 -12 -33 -5 -25 15 7 19 -27 18 -55 -2 -36 -25 -26 -34 31 -29 28 3 61 5 71 6 11 0 25 7 31 15 10 14 12 14 24 0 8 -9 23 -16 35 -15 14 0 16 2 6 6 -8 3 -25 15 -38 27 -23 20 -24 20 -37 3 -13 -18 -14 -18 -17 3 -2 12 -6 19 -10 15z"/> <path d="M2357 1448 c-3 -12 -4 -25 -1 -30 8 -12 42 -10 48 5 5 10 7 10 12 0 9 -20 29 -15 50 10 10 12 12 16 4 10 -21 -19 -40 -16 -40 7 0 28 -14 25 -28 -5 -6 -14 -17 -25 -23 -25 -7 0 -9 9 -5 25 4 14 2 25 -3 25 -5 0 -11 -10 -14 -22z"/> <path d="M950 934 c0 -41 -5 -75 -12 -82 -9 -9 -3 -12 30 -12 38 0 42 -2 42 -25 0 -20 -5 -25 -25 -25 -19 0 -25 5 -25 21 0 35 -24 -1 -28 -41 -8 -84 -7 -113 6 -116 7 -1 8 0 2 3 -18 9 -11 21 10 16 11 -3 20 -9 20 -13 0 -23 -15 -40 -35 -40 -30 0 -95 -28 -95 -40 0 -6 12 -5 28 4 15 7 42 17 60 21 18 3 37 15 42 25 14 27 12 60 -4 60 -23 0 -27 29 -6 42 11 7 20 18 20 25 0 6 4 14 9 17 12 8 13 -131 2 -153 -6 -10 -29 -24 -53 -31 -27 -9 -37 -15 -25 -18 9 -2 34 5 55 15 28 14 38 25 40 47 l4 29 56 -9 c101 -14 224 -11 260 8 17 9 32 13 32 9 0 -18 -61 -34 -150 -42 l-95 -7 102 2 c115 3 159 21 150 58 -8 29 15 48 55 47 28 -1 29 -2 10 -7 -13 -4 -23 -11 -22 -17 1 -5 -7 -12 -17 -16 -17 -7 -16 -8 2 -8 11 0 29 6 39 14 11 8 28 15 39 15 10 0 17 5 15 12 -6 17 -95 23 -113 8 -10 -8 -19 -5 -38 14 -37 37 -90 48 -163 34 -49 -9 -65 -16 -75 -36 -11 -20 -19 -23 -47 -18 -43 7 -49 13 -36 34 14 22 39 22 38 0 -1 -14 2 -15 17 -5 10 6 15 15 13 19 -3 5 -9 6 -13 3 -5 -2 -17 6 -28 18 -19 20 -28 85 -25 180 1 9 -3 15 -9 12 -5 -4 -9 -35 -9 -71 0 -55 -3 -64 -18 -64 -16 0 -17 8 -14 66 3 41 0 70 -7 77 -8 8 -11 -7 -11 -59z m361 -187 c64 -43 35 -80 -73 -93 -106 -12 -156 13 -128 65 28 53 141 69 201 28z"/> <path d="M671 776 c-16 -17 -18 -23 -7 -23 8 0 13 4 10 9 -6 9 37 28 49 21 4 -2 -1 -12 -10 -21 -10 -9 -14 -14 -9 -9 6 4 16 7 24 7 11 0 12 -3 3 -14 -8 -10 -9 -16 -1 -21 12 -7 17 50 5 63 -12 13 -46 7 -64 -12z"/> <path d="M780 752 c0 -15 22 -30 36 -25 8 3 21 0 29 -7 12 -10 15 -9 15 8 0 12 -9 22 -22 26 -32 8 -58 7 -58 -2z"/> <path d="M532 720 c-22 -10 -47 -29 -55 -42 -21 -32 -32 -94 -18 -102 6 -4 11 -1 11 7 0 13 5 13 41 0 49 -16 181 -12 204 7 12 10 19 10 27 2 17 -17 48 -15 48 2 0 9 -7 12 -20 9 -11 -3 -20 0 -20 6 0 8 -11 6 -32 -4 l-33 -16 33 30 c31 30 45 77 20 68 -7 -2 -26 7 -41 22 -36 33 -105 38 -165 11z m138 -20 c36 -26 43 -54 20 -83 -16 -20 -27 -22 -104 -22 -67 0 -89 4 -102 17 -15 14 -16 22 -6 43 28 60 135 86 192 45z"/> <path d="M867 706 c-3 -8 -15 -20 -26 -26 -17 -8 -24 -7 -41 10 -30 30 -43 25 -35 -12 4 -18 9 -35 11 -37 2 -2 21 1 44 7 36 9 57 1 28 -11 -8 -4 -7 -6 3 -6 13 -1 18 10 21 42 5 46 4 56 -5 33z"/> </g> </svg> 